 http://kastatic.com/i2/u/1813980/0aq32UMZvX.gif

Cover 
http://www.shotpix.com/images/02744719017743577744.jpg

General
Complete name                            : Sean Kingston Feat. Nicki Minaj - Letting Go (Dutty Love) 

[Music Video] 1080p [Sbyky].MP4
Format                                   : MPEG-4
Format profile                           : Base Media / Version 2
Codec ID                                 : mp42
File size                                : 188 MiB
Duration                                 : 3mn 52s
Overall bit rate mode                    : Variable
Overall bit rate                         : 6 794 Kbps
Encoded date                             : UTC 2010-08-04 01:56:24
Tagged date                              : UTC 2010-08-04 01:56:24
gsst                                     : 0
gstd                                     : 232725
gssd                                     : BADC20FA2HH1334007948968276
gshh                                     :

Video
ID                                       : 1
Format                                   : AVC
Format/Info                              : Advanced Video Codec
Format profile                           : High@L4.0
Format settings, CABAC                   : No
Format settings, ReFrames                : 1 frame
Codec ID                                 : avc1
Codec ID/Info                            : Advanced Video Coding
Duration                                 : 3mn 52s
Bit rate                                 : 6 659 Kbps
Maximum bit rate                         : 11.0 Mbps
Width                                    : 1 920 pixels
Height                                   : 1 080 pixels
Display aspect ratio                     : 16:9
Frame rate mode                          : Variable
Frame rate                               : 29.970 fps
Original frame rate                      : 29.917 fps
Minimum frame rate                       : 29.412 fps
Maximum frame rate                       : 200.000 fps
Color space                              : YUV
Chroma subsampling                       : 4:2:0
Bit depth                                : 8 bits
Scan type                                : Progressive
Bits/(Pixel*Frame)                       : 0.107
Stream size                              : 185 MiB (98%)
Tagged date                              : UTC 2010-08-04 01:56:31

Audio
ID                                       : 2
Format                                   : AAC
Format/Info                              : Advanced Audio Codec
Format profile                           : LC
Codec ID                                 : 40
Duration                                 : 3mn 52s
Bit rate mode                            : Variable
Bit rate                                 : 128 Kbps
Maximum bit rate                         : 214 Kbps
Channel(s)                               : 2 channels
Channel positions                        : Front: L R
Sampling rate                            : 44.1 KHz
Compression mode                         : Lossy
Stream size                              : 3.55 MiB (2%)
Title                                    : (C) 2007 Google Inc. v08.13.2007.
Encoded date                             : UTC 2010-08-04 01:56:29
Tagged date                              : UTC 2010-08-04 01:56:31

Shared By Sbyky 
http://kastatic.com/i2/u/1813980/bQg62viaEG.gif